<svg xmlns="http://www.w3.org/2000/svg" version="1.1" width="1000" height="623" viewBox="0 0 1000 623"><g transform="matrix(1,0,0,1,-0.6060606060606233,0.2522267206477409)"><svg viewBox="0 0 396 247" data-background-color="#636365" preserveAspectRatio="xMidYMid meet" height="623" width="1000" xmlns="http://www.w3.org/2000/svg"><g id="tight-bounds" transform="matrix(1,0,0,1,0.2400000000000091,-0.09999999999999432)"><svg viewBox="0 0 395.52 247.2" height="247.2" width="395.52"><g><svg viewBox="0 0 395.52 247.2" height="247.2" width="395.52"><mask id="d01a136b-50fa-4193-90aa-964e94eb3110"><rect width="395.52" height="247.2" fill="white"/><g transform="matrix(1,0,0,1,0,110.78491899852725)" id="clone"><svg viewBox="0 0 395.52 25.630162002945507" height="25.630162002945507" width="395.52"><g><svg viewBox="0 0 395.52 25.630162002945507" height="25.630162002945507" width="395.52"><g><svg viewBox="0 0 395.52 25.630162002945507" height="25.630162002945507" width="395.52"><g><svg viewBox="0 0 395.52 25.630162002945507" height="25.630162002945507" width="395.52"><g id="SvgjsG2380"><svg viewBox="0 0 395.52 25.630162002945507" height="25.630162002945507" width="395.52" id="SvgjsSvg2379"><g><svg viewBox="0 0 395.52 25.630162002945507" height="25.630162002945507" width="395.52"><g transform="matrix(1,0,0,1,0,0)"><svg width="395.52" viewBox="-3 -53 849.7100219726562 56" height="25.630162002945507" data-palette-color="#d2d6dc"><path d="M12.5-6.25L0-6.25 0-50 12.5-50 12.5-25 25-25 25-31.25 31.25-31.25 31.25-37.5 43.75-37.5 43.75-31.25 37.5-31.25 37.5-25 31.25-25 31.25-18.75 37.5-18.75 37.5-12.5 43.75-12.5 43.75-6.25 31.25-6.25 31.25-12.5 25-12.5 25-18.75 12.5-18.75 12.5-6.25ZM81.25-43.75L68.75-43.75 68.75-50 81.25-50 81.25-43.75ZM93.75-6.25L56.25-6.25 56.25-12.5 68.75-12.5 68.75-31.25 62.5-31.25 62.5-37.5 81.25-37.5 81.25-12.5 93.75-12.5 93.75-6.25ZM143.75-6.25L106.25-6.25 106.25-12.5 100-12.5 100-31.25 106.25-31.25 106.25-37.5 143.75-37.5 143.75-31.25 112.5-31.25 112.5-12.5 143.75-12.5 143.75-6.25ZM162.49-6.25L149.99-6.25 149.99-50 162.49-50 162.49-25 174.99-25 174.99-31.25 181.24-31.25 181.24-37.5 193.74-37.5 193.74-31.25 187.49-31.25 187.49-25 181.24-25 181.24-18.75 187.49-18.75 187.49-12.5 193.74-12.5 193.74-6.25 181.24-6.25 181.24-12.5 174.99-12.5 174.99-18.75 162.49-18.75 162.49-6.25ZM262.49-37.5L262.49-12.5 268.74-12.5 268.74-6.25 256.24-6.25 256.24-12.5 249.99-12.5 249.99-37.5 262.49-37.5ZM268.74-37.5L274.99-37.5 274.99-12.5 268.74-12.5 268.74-37.5ZM281.24-37.5L293.74-37.5 293.74-12.5 287.49-12.5 287.49-6.25 274.99-6.25 274.99-12.5 281.24-12.5 281.24-37.5ZM343.74-6.25L306.24-6.25 306.24-12.5 299.99-12.5 299.99-18.75 306.24-18.75 306.24-25 331.24-25 331.24-31.25 306.24-31.25 306.24-37.5 337.49-37.5 337.49-31.25 343.74-31.25 343.74-6.25ZM312.49-18.75L312.49-12.5 331.24-12.5 331.24-18.75 312.49-18.75ZM381.23-43.75L368.73-43.75 368.73-50 381.23-50 381.23-43.75ZM393.73-6.25L356.23-6.25 356.23-12.5 368.73-12.5 368.73-31.25 362.48-31.25 362.48-37.5 381.23-37.5 381.23-12.5 393.73-12.5 393.73-6.25ZM431.23-6.25L418.73-6.25 418.73-31.25 406.23-31.25 406.23-37.5 418.73-37.5 418.73-50 431.23-50 431.23-37.5 443.73-37.5 443.73-31.25 431.23-31.25 431.23-6.25ZM481.23-43.75L468.73-43.75 468.73-50 481.23-50 481.23-43.75ZM493.73-6.25L456.23-6.25 456.23-12.5 468.73-12.5 468.73-31.25 462.48-31.25 462.48-37.5 481.23-37.5 481.23-12.5 493.73-12.5 493.73-6.25ZM512.48-6.25L499.98-6.25 499.98-37.5 537.48-37.5 537.48-31.25 543.73-31.25 543.73-6.25 531.23-6.25 531.23-31.25 512.48-31.25 512.48-6.25ZM587.47 0L556.22 0 556.22-6.25 581.22-6.25 581.22-12.5 556.22-12.5 556.22-18.75 549.97-18.75 549.97-31.25 556.22-31.25 556.22-37.5 593.72-37.5 593.72-6.25 587.47-6.25 587.47 0ZM562.47-31.25L562.47-18.75 581.22-18.75 581.22-31.25 562.47-31.25ZM693.72-6.25L656.22-6.25 656.22-12.5 668.72-12.5 668.72-43.75 662.47-43.75 662.47-50 681.22-50 681.22-12.5 693.72-12.5 693.72-6.25ZM731.21-43.75L718.71-43.75 718.71-50 731.21-50 731.21-43.75ZM743.71-6.25L706.21-6.25 706.21-12.5 718.71-12.5 718.71-31.25 712.46-31.25 712.46-37.5 731.21-37.5 731.21-12.5 743.71-12.5 743.71-6.25ZM787.46-6.25L749.96-6.25 749.96-12.5 781.21-12.5 781.21-18.75 756.21-18.75 756.21-25 749.96-25 749.96-31.25 756.21-31.25 756.21-37.5 787.46-37.5 787.46-31.25 762.46-31.25 762.46-25 787.46-25 787.46-18.75 793.71-18.75 793.71-12.5 787.46-12.5 787.46-6.25ZM831.21-6.25L818.71-6.25 818.71-31.25 806.21-31.25 806.21-37.5 818.71-37.5 818.71-50 831.21-50 831.21-37.5 843.71-37.5 843.71-31.25 831.21-31.25 831.21-6.25Z" opacity="1" transform="matrix(1,0,0,1,0,0)" fill="black" class="wordmark-text-0" id="SvgjsPath2378" stroke-width="5" stroke="black" stroke-linejoin="round"/></svg></g></svg></g></svg></g></svg></g></svg></g></svg></g></svg></g></mask><g mask="url(#d01a136b-50fa-4193-90aa-964e94eb3110)"><g><path xmlns="http://www.w3.org/2000/svg" d="M35.581 183.35h-34.144v-119.5h34.144v51.214h17.071v-17.071h17.072v-17.072h17.071v-17.071h34.143v17.071h-17.071v17.072h-17.072v17.071h-17.071v17.072h17.071v17.071h17.072v17.072h17.071v17.071h-51.214v-17.071h-17.072v-17.072h-17.071zM172.153 183.35h-17.072v-17.071h-17.071v-102.429h34.143v68.286h17.071v-68.286h17.072v68.286h17.071v-68.286h34.143v102.429h-17.071v17.071h-17.072v-17.071h-17.071v-17.072h-17.072v17.072h-17.071zM394.082 183.35h-102.429v-119.5h34.143v102.429h68.286z" fill="#d2d6dc" fill-rule="nonzero" stroke="none" stroke-width="1" stroke-linecap="butt" stroke-linejoin="miter" stroke-miterlimit="10" stroke-dasharray="" stroke-dashoffset="0" style="mix-blend-mode: normal"/></g></g><g transform="matrix(1,0,0,1,0,110.78491899852725)"><svg viewBox="0 0 395.52 25.630162002945507" height="25.630162002945507" width="395.52"><g><svg viewBox="0 0 395.52 25.630162002945507" height="25.630162002945507" width="395.52"><g><svg viewBox="0 0 395.52 25.630162002945507" height="25.630162002945507" width="395.52"><g><svg viewBox="0 0 395.52 25.630162002945507" height="25.630162002945507" width="395.52"><g id="textblocktransform"><svg viewBox="0 0 395.52 25.630162002945507" height="25.630162002945507" width="395.52" id="textblock"><g><svg viewBox="0 0 395.52 25.630162002945507" height="25.630162002945507" width="395.52"><g transform="matrix(1,0,0,1,0,0)"><svg width="395.52" viewBox="-3 -53 849.7100219726562 56" height="25.630162002945507" data-palette-color="#d2d6dc"><path d="M12.5-6.25L0-6.25 0-50 12.5-50 12.5-25 25-25 25-31.25 31.25-31.25 31.25-37.5 43.75-37.5 43.75-31.25 37.5-31.25 37.5-25 31.25-25 31.25-18.75 37.5-18.75 37.5-12.5 43.75-12.5 43.75-6.25 31.25-6.25 31.25-12.5 25-12.5 25-18.75 12.5-18.75 12.5-6.25ZM81.25-43.75L68.75-43.75 68.75-50 81.25-50 81.25-43.75ZM93.75-6.25L56.25-6.25 56.25-12.5 68.75-12.5 68.75-31.25 62.5-31.25 62.5-37.5 81.25-37.5 81.25-12.5 93.75-12.5 93.75-6.25ZM143.75-6.25L106.25-6.25 106.25-12.5 100-12.5 100-31.25 106.25-31.25 106.25-37.5 143.75-37.5 143.75-31.25 112.5-31.25 112.5-12.5 143.75-12.5 143.75-6.25ZM162.49-6.25L149.99-6.25 149.99-50 162.49-50 162.49-25 174.99-25 174.99-31.25 181.24-31.25 181.24-37.5 193.74-37.5 193.74-31.25 187.49-31.25 187.49-25 181.24-25 181.24-18.75 187.49-18.75 187.49-12.5 193.74-12.5 193.74-6.25 181.24-6.25 181.24-12.5 174.99-12.5 174.99-18.75 162.49-18.75 162.49-6.25ZM262.49-37.5L262.49-12.5 268.74-12.5 268.74-6.25 256.24-6.25 256.24-12.5 249.99-12.5 249.99-37.5 262.49-37.5ZM268.74-37.5L274.99-37.5 274.99-12.5 268.74-12.5 268.74-37.5ZM281.24-37.5L293.74-37.5 293.74-12.5 287.49-12.5 287.49-6.25 274.99-6.25 274.99-12.5 281.24-12.5 281.24-37.5ZM343.74-6.25L306.24-6.25 306.24-12.5 299.99-12.5 299.99-18.75 306.24-18.75 306.24-25 331.24-25 331.24-31.25 306.24-31.25 306.24-37.5 337.49-37.5 337.49-31.25 343.74-31.25 343.74-6.25ZM312.49-18.75L312.49-12.5 331.24-12.5 331.24-18.75 312.49-18.75ZM381.23-43.75L368.73-43.75 368.73-50 381.23-50 381.23-43.75ZM393.73-6.25L356.23-6.25 356.23-12.5 368.73-12.5 368.73-31.25 362.48-31.25 362.48-37.5 381.23-37.5 381.23-12.5 393.73-12.5 393.73-6.25ZM431.23-6.25L418.73-6.25 418.73-31.25 406.23-31.25 406.23-37.5 418.73-37.5 418.73-50 431.23-50 431.23-37.5 443.73-37.5 443.73-31.25 431.23-31.25 431.23-6.25ZM481.23-43.75L468.73-43.75 468.73-50 481.23-50 481.23-43.75ZM493.73-6.25L456.23-6.25 456.23-12.5 468.73-12.5 468.73-31.25 462.48-31.25 462.48-37.5 481.23-37.5 481.23-12.5 493.73-12.5 493.73-6.25ZM512.48-6.25L499.98-6.25 499.98-37.5 537.48-37.5 537.48-31.25 543.73-31.25 543.73-6.25 531.23-6.25 531.23-31.25 512.48-31.25 512.48-6.25ZM587.47 0L556.22 0 556.22-6.25 581.22-6.25 581.22-12.5 556.22-12.5 556.22-18.75 549.97-18.75 549.97-31.25 556.22-31.25 556.22-37.5 593.72-37.5 593.72-6.25 587.47-6.25 587.47 0ZM562.47-31.25L562.47-18.75 581.22-18.75 581.22-31.25 562.47-31.25ZM693.72-6.25L656.22-6.25 656.22-12.5 668.72-12.5 668.72-43.75 662.47-43.75 662.47-50 681.22-50 681.22-12.5 693.72-12.5 693.72-6.25ZM731.21-43.75L718.71-43.75 718.71-50 731.21-50 731.21-43.75ZM743.71-6.25L706.21-6.25 706.21-12.5 718.71-12.5 718.71-31.25 712.46-31.25 712.46-37.5 731.21-37.5 731.21-12.5 743.71-12.5 743.71-6.25ZM787.46-6.25L749.96-6.25 749.96-12.5 781.21-12.5 781.21-18.75 756.21-18.75 756.21-25 749.96-25 749.96-31.25 756.21-31.25 756.21-37.5 787.46-37.5 787.46-31.25 762.46-31.25 762.46-25 787.46-25 787.46-18.75 793.71-18.75 793.71-12.5 787.46-12.5 787.46-6.25ZM831.21-6.25L818.71-6.25 818.71-31.25 806.21-31.25 806.21-37.5 818.71-37.5 818.71-50 831.21-50 831.21-37.5 843.71-37.5 843.71-31.25 831.21-31.25 831.21-6.25Z" opacity="1" transform="matrix(1,0,0,1,0,0)" fill="#d2d6dc" class="wordmark-text-0" id="text-0"/></svg></g></svg></g></svg></g></svg></g></svg></g></svg></g></svg></g></svg></g></svg><rect width="395.52" height="247.2" fill="none" stroke="none" visibility="hidden"/></g></svg></g></svg>
